<svg id="Capa_1" enable-background="new 0 0 512 512" height="512" viewBox="0 0 512 512" width="512" xmlns="http://www.w3.org/2000/svg"><g><g><path d="m352.753 201.756c-13.126-13.126-38.624-31.207-75.519-30.547l-51.76 51.76c-5.939 5.939-5.94 15.273 0 21.213s15.274 5.939 21.213 0c17.607-17.607 46.032-17.607 63.64 0 17.607 17.607 17.607 46.032 0 63.64l-131.154 131.046c-17.606 17.606-46.032 17.607-63.64 0-17.607-17.607-17.606-46.034 0-63.64l36.331-36.223c-4.031-3.181-7.638-6.364-11.244-9.97-11.031-11.031-19.94-23.76-26.304-37.335l-41.21 41.102c-40.941 40.941-40.941 107.551 0 148.492s107.551 40.941 148.492 0l131.154-131.046c24.829-24.827 54.106-94.387.001-148.492z"/></g><g><path d="m373.966 180.543c11.244 11.244 19.942 23.759 26.304 37.335l38.623-38.68c40.941-40.941 40.941-107.551 0-148.492s-107.551-40.941-148.492 0l-128.567 128.624c-39.744 39.744-42.013 106.48 0 148.492 21.11 21.11 50.577 31.405 75.519 30.547l51.76-51.76c5.94-5.94 5.94-15.273 0-21.213s-15.273-5.94-21.213 0c-17.606 17.606-46.032 17.607-63.64 0s-17.606-46.034 0-63.64l128.567-128.624c17.607-17.607 46.032-17.607 63.64 0 17.607 17.607 17.607 46.032 0 63.64l-33.743 33.8c3.817 2.97 7.636 6.365 11.242 9.971z"/></g></g></svg>